<svg xmlns="http://www.w3.org/2000/svg" viewBox="0 0 515.75 126.96"><defs><style>.cls-1{fill:#231916;}</style></defs><title>Ресурс 10</title><g id="Слой_2" data-name="Слой 2"><g id="Слой_1-2" data-name="Слой 1"><polygon class="cls-1" points="316.25 35.66 316.25 72.13 282.58 34.95 281.06 34.95 281.06 84.34 287.09 84.34 287.09 47.92 320.91 84.86 322.28 84.86 322.28 35.66 316.25 35.66"/><path class="cls-1" d="M461.52,45l3.47-4s-5.59-6-16.53-6-18.21,5.91-18.21,13.44,4.53,11,11.88,12.83,17.46,2.55,17.46,10.23S450.72,80,446.42,80s-10.31-2.63-14-6.06l-3.59,4A26.78,26.78,0,0,0,446.93,85c11.19,0,18.8-5.15,18.8-14.16s-7.32-11.24-16.2-13.43-13.4-3.83-13.4-9.06,5.88-8.43,12.21-8.43S458,42.09,461.52,45Z"/><rect class="cls-1" x="402.64" y="35.66" width="6.04" height="48.68"/><path class="cls-1" d="M199.42,118.7a12.92,12.92,0,0,1-.4,3.41,7,7,0,0,1-1.16,2.47,5,5,0,0,1-1.82,1.5,5.5,5.5,0,0,1-2.35.5h-3.4v-15.8h3.42a5.32,5.32,0,0,1,2.35.5,4.73,4.73,0,0,1,1.81,1.5,7.36,7.36,0,0,1,1.15,2.49A13.08,13.08,0,0,1,199.42,118.7Zm-1.54,0a12,12,0,0,0-.32-2.92,6.27,6.27,0,0,0-.89-2,3.83,3.83,0,0,0-1.34-1.21,3.56,3.56,0,0,0-1.67-.41h-1.83v13.13h1.83a3.67,3.67,0,0,0,1.67-.4,3.93,3.93,0,0,0,1.34-1.21,6.41,6.41,0,0,0,.89-2A11.76,11.76,0,0,0,197.88,118.7Z"/><path class="cls-1" d="M217.69,126.58v-15.8h6.36v1.38H219.2v5.53h4.53V119H219.2v6.14h5.07v1.41Z"/><path class="cls-1" d="M242.18,126.58v-15.8h1.57v14.35h4.51v1.45Z"/><path class="cls-1" d="M274.09,123.35a5.72,5.72,0,0,1-.76,1.89,3.79,3.79,0,0,1-1.4,1.26,4.61,4.61,0,0,1-2.14.46,4.54,4.54,0,0,1-2.13-.46,3.72,3.72,0,0,1-1.38-1.26,5.5,5.5,0,0,1-.75-1.89,11.31,11.31,0,0,1-.23-2.31V110.78h1.57v10.06a12.32,12.32,0,0,0,.12,1.72,4.86,4.86,0,0,0,.45,1.51,2.71,2.71,0,0,0,.89,1.06,2.56,2.56,0,0,0,1.48.4,2.61,2.61,0,0,0,1.48-.4,2.82,2.82,0,0,0,.9-1.06,5.16,5.16,0,0,0,.45-1.5,12.15,12.15,0,0,0,.12-1.73V110.78h1.56V121A11.31,11.31,0,0,1,274.09,123.35Z"/><path class="cls-1" d="M299.62,126.58l-3.19-7-3.19,7h-1.65l4-8.33L292,110.78h1.65l2.84,6.24,2.81-6.24h1.61l-3.58,7.49,4,8.31Z"/><path class="cls-1" d="M318.87,126.58v-15.8h6.36v1.38h-4.84v5.53h4.53V119h-4.53v6.14h5.07v1.41Z"/><polygon class="cls-1" points="198.25 79.34 175.2 79.34 175.2 35.66 169.16 35.66 169.16 84.34 169.94 84.34 175.2 84.34 196.19 84.34 198.25 79.34"/><polygon class="cls-1" points="384.05 35.66 342.28 35.66 342.28 40.66 359.24 40.66 359.24 84.34 365.28 84.34 365.28 40.66 381.99 40.66 384.05 35.66"/><polygon class="cls-1" points="105.88 35.66 107.94 40.66 124.45 40.66 124.45 84.34 130.49 84.34 130.49 40.66 147.45 40.66 147.45 35.66 105.88 35.66"/><polygon class="cls-1" points="95.55 84.34 77.37 43.59 75.52 39.45 75.52 39.45 73.52 34.95 72.05 34.95 70.05 39.45 70.05 39.45 67.66 44.81 50.02 84.34 56.43 84.34 72.79 45.88 89.14 84.34 95.55 84.34"/><polygon class="cls-1" points="94.74 56.47 71.12 65.24 68.83 71.09 92.31 62.37 94.74 56.47"/><polygon class="cls-1" points="259.17 84.34 240.99 43.59 239.14 39.45 239.14 39.45 237.13 34.95 235.67 34.95 233.67 39.45 233.67 39.45 231.28 44.81 213.64 84.34 220.05 84.34 236.4 45.88 252.76 84.34 259.17 84.34"/><polygon class="cls-1" points="258.36 56.47 234.74 65.24 232.45 71.09 255.93 62.37 258.36 56.47"/><polygon class="cls-1" points="64.17 118.39 0.57 118.39 0.57 0.57 356.25 0.57 357.65 0 0 0 0 118.96 62.77 118.96 64.17 118.39"/><polygon class="cls-1" points="121.44 118.96 174.05 118.96 174.05 118.39 122.84 118.39 121.44 118.96"/><polygon class="cls-1" points="414.92 0.57 515.18 0.57 515.18 118.39 342.28 118.39 342.28 118.96 515.75 118.96 515.75 0 416.32 0 414.92 0.57"/></g></g></svg>