<svg xmlns="http://www.w3.org/2000/svg" viewBox="0 0 19.81 20.26"><defs><style>.cls-1,.cls-2{fill:none;stroke:#e83c33;stroke-miterlimit:10;stroke-width:2px;}.cls-1{fill-rule:evenodd;}</style></defs><title>Ресурс 80</title><g id="Слой_2" data-name="Слой 2"><g id="Слой_1-2" data-name="Слой 1"><path class="cls-1" d="M5.45,17A2.23,2.23,0,1,1,1,17"/><path class="cls-1" d="M9.9,17a2.23,2.23,0,1,1-4.45,0"/><path class="cls-1" d="M14.36,17A2.23,2.23,0,1,1,9.9,17"/><path class="cls-1" d="M18.81,17a2.23,2.23,0,1,1-4.45,0"/><path class="cls-1" d="M5.45,12.86a2.23,2.23,0,1,1-4.45,0"/><path class="cls-1" d="M9.9,12.86a2.23,2.23,0,1,1-4.45,0"/><path class="cls-1" d="M14.36,12.86a2.23,2.23,0,1,1-4.46,0"/><path class="cls-1" d="M18.81,12.86a2.23,2.23,0,1,1-4.45,0"/><line class="cls-2" x1="5.45" y1="11.41" x2="5.45" y2="1"/><polygon class="cls-2" points="17.3 1 5.45 1 5.45 5.76 17.3 5.76 14.78 3.38 17.3 1"/></g></g></svg>