<svg xmlns="http://www.w3.org/2000/svg" viewBox="0 0 16 22"><defs><style>.cls-1{fill:#ef3125;fill-rule:evenodd;}</style></defs><title>Ресурс 130</title><g id="Слой_2" data-name="Слой 2"><g id="Слой_1-2" data-name="Слой 1"><path class="cls-1" d="M10,2V5H8V2H6V6H4V2H2V8H14V2ZM0,8V0H16V12c0,1.53-.84,2-3.21,2.72-1.39.41-1.79.64-1.79.79a7.08,7.08,0,0,0,.22,1.88c0-.11.14.55.18.72a3.94,3.94,0,0,1,.1.9A3.27,3.27,0,0,1,8,22a3.27,3.27,0,0,1-3.5-3,3.94,3.94,0,0,1,.1-.9c0-.17.21-.83.18-.72A7.08,7.08,0,0,0,5,15.5c0-.15-.4-.38-1.79-.79C.85,14,0,13.52,0,12Zm2,2v2c0,.15.4.38,1.79.79C6.15,13.5,7,14,7,15.5a9,9,0,0,1-.28,2.37c0-.07-.14.52-.16.65A2.17,2.17,0,0,0,6.5,19c0,.48.6,1,1.5,1s1.5-.52,1.5-1a2.17,2.17,0,0,0-.06-.48c0-.13-.18-.72-.16-.65A9,9,0,0,1,9,15.5c0-1.52.85-2,3.21-2.71h0C13.6,12.38,14,12.15,14,12V10Z"/></g></g></svg>