<svg xmlns="http://www.w3.org/2000/svg" viewBox="0 0 20.1 20.1"><defs><style>.cls-1{fill:#ef3125;fill-rule:evenodd;}</style></defs><title>Ресурс 90</title><g id="Слой_2" data-name="Слой 2"><g id="Слой_1-2" data-name="Слой 1"><path class="cls-1" d="M20.1,20.1H0V18.43H.84V12.56A.83.83,0,0,0,0,11.73V7.54H1.68V9.21H3.35V8.38H5v1.67h.83V5.86H7.54V6.7H9.21V0L13.4,1.68,10.05,3.35V5h.84V6.7h1.67V5.86h1.68v4.19h.84V8.38h1.67v.83h1.68V7.54H20.1v4.19a.83.83,0,0,0-.83.83v5.87h.83Zm-9.21-.83V15.91a.84.84,0,0,0-1.68,0v3.36ZM12.56,8.38h-5v3.35H3.35v-.84H1.87a2.44,2.44,0,0,1,.64,1.65v5.89h5V15.91a2.51,2.51,0,0,1,5,0v2.52h5V12.54a2.51,2.51,0,0,1,.64-1.65H16.75v.84H12.56Zm-6.7,7.53H4.19V14.24a.84.84,0,1,1,1.67,0Zm10.05,0H14.24V14.24a.84.84,0,1,1,1.67,0Zm-5-4.18H9.21V10.05a.84.84,0,0,1,1.68,0Z"/></g></g></svg>