<svg xmlns="http://www.w3.org/2000/svg" viewBox="0 0 386.84 85.04"><defs><style>.cls-1{fill:#c83b2d;}.cls-2{fill:#251e1c;}</style></defs><title>Ресурс 20</title><g id="Слой_2" data-name="Слой 2"><g id="Слой_1-2" data-name="Слой 1"><path class="cls-1" d="M113.39,0H65.2L56.69,8.5,48.19,0H0V31.18L11.34,42.52C7.34,46.51,2.88,51,0,53.86V85H48.19l8.5-8.5L65.2,85h48.19V53.86L102.05,42.52l11.34-11.34ZM64.48,19.1l6.1-6.1h29.81V25.8l-9.46,9.45H64.48ZM13,13H42.8l3.06,3.05,3,3.05V35.25H22.45l-1.11-1.12L13,25.8ZM48.91,65.94l-3,3L42.8,72H13V59.24l9.45-9.45H48.91ZM100.39,72H70.58l-6.1-6.1V49.79H90.93l8.34,8.34,1.12,1.11Z"/><path class="cls-2" d="M159.81,26.37c4.19.22,7.44,2.35,9.75,6.15,0,0,1.52-.22,1.65,0l8.7-4.29c-3.82-6.72-10.87-10.67-19.57-10.67-.22,0-.43,0-.65,0s-.66,0-1,0c-13.44,0-22.47,9.42-22.47,23.85s9,23.85,22.47,23.85c.34,0,.67,0,1,0s.43,0,.65,0c8.7,0,15.75-4,19.57-10.67l-8.7-4.29c-.13.22-1.65,0-1.65,0-2.31,3.8-5.56,5.93-9.75,6.15-6.41-.45-11.33-5.61-11.33-15s4.92-14.59,11.33-15"/><polygon class="cls-2" points="223.06 18.35 210.12 43.18 197.17 18.35 185.05 18.35 185.05 64.47 196.84 64.47 196.84 38.73 206.06 56.1 214.17 56.1 223.39 38.73 223.39 64.47 235.19 64.47 235.19 18.35 223.06 18.35"/><polygon class="cls-2" points="280.64 18.35 271.56 18.35 269.91 18.35 261.04 37.65 252.06 18.35 250.41 18.35 241.32 18.35 239.67 18.35 255.34 50.37 248.96 64.47 250.61 64.47 259.76 64.47 261.41 64.47 282.3 18.35 280.64 18.35"/><path class="cls-2" d="M337.82,40.29A11.82,11.82,0,0,0,343.56,30c0-7-6.06-12.45-15.95-12.45-.28,0-.55,0-.83,0s-.54,0-.82,0c-9.62,0-15.68,5.27-15.68,12.78,0,3.63,1.71,6.92,5.21,9.69a12.74,12.74,0,0,0-7.12,11.52c0,8.37,7.05,13.64,17.72,13.64l.82,0,.84,0c10.86,0,17.72-5.47,17.72-13.5,0-4.68-2.31-8.5-7.65-11.4m-5.93-9.35a6.81,6.81,0,0,1-2.65,5.49c-5.35-2.21-7.09-3.86-7.09-6.15,0-2.47,1.77-4.32,4.8-4.62a5.08,5.08,0,0,1,4.94,5.28M320.56,51.29a8.5,8.5,0,0,1,3.4-6.76c7.39,2.84,9.38,4.61,9.38,7.68,0,2.88-2.51,4.71-6.23,5-3.86-.26-6.55-2.42-6.55-5.88"/><path class="cls-2" d="M379.2,40.29A11.81,11.81,0,0,0,384.93,30c0-7-6.06-12.45-15.94-12.45-.28,0-.55,0-.83,0s-.54,0-.82,0c-9.62,0-15.68,5.27-15.68,12.78,0,3.63,1.71,6.92,5.2,9.69a12.75,12.75,0,0,0-7.11,11.52c0,8.37,7.05,13.64,17.72,13.64l.82,0,.83,0c10.87,0,17.72-5.47,17.72-13.5,0-4.68-2.3-8.5-7.64-11.4m-5.93-9.35a6.79,6.79,0,0,1-2.66,5.49c-5.34-2.21-7.09-3.86-7.09-6.15,0-2.47,1.78-4.32,4.8-4.62a5.09,5.09,0,0,1,4.95,5.28M361.94,51.29a8.47,8.47,0,0,1,3.4-6.76c7.38,2.84,9.38,4.61,9.38,7.68,0,2.88-2.51,4.71-6.23,5-3.87-.26-6.55-2.42-6.55-5.88"/><polygon class="cls-2" points="276.32 49.33 298.73 49.33 298.73 36.68 283.23 36.68 276.32 49.33"/></g></g></svg>