<svg xmlns="http://www.w3.org/2000/svg" xmlns:xlink="http://www.w3.org/1999/xlink" viewBox="0 0 378.18 178.64"><defs><style>.cls-1{fill:url(#Безымянный_градиент_13);}.cls-2{fill:url(#Безымянный_градиент_13-2);}.cls-3{fill:#8f2224;}</style><linearGradient id="Безымянный_градиент_13" x1="128.2" y1="178.64" x2="128.2" gradientUnits="userSpaceOnUse"><stop offset="0" stop-color="#ee8e2e"/><stop offset="1" stop-color="#f6d75e" stop-opacity="0"/></linearGradient><linearGradient id="Безымянный_градиент_13-2" x1="261.93" y1="178.64" x2="261.93" xlink:href="#Безымянный_градиент_13"/></defs><title>Ресурс 10</title><g id="Слой_2" data-name="Слой 2"><g id="Слой_1-2" data-name="Слой 1"><polygon class="cls-1" points="61.33 0 175.82 178.64 195.07 178.64 111.95 0 61.33 0"/><polygon class="cls-2" points="278.18 0 195.07 178.64 214.31 178.64 328.8 0 278.18 0"/><path class="cls-3" d="M0,124.11V89.47A1.07,1.07,0,0,1,1.07,88.4H29.72a1.07,1.07,0,0,1,1.07,1.07v34.64a1.07,1.07,0,0,1-1.07,1.07H24.35a1.07,1.07,0,0,1-1.07-1.07V96.25a1.07,1.07,0,0,0-1.08-1.07H8.64a1.07,1.07,0,0,0-1.07,1.07v27.86a1.07,1.07,0,0,1-1.08,1.07H1.07A1.07,1.07,0,0,1,0,124.11Z"/><path class="cls-3" d="M42.81,123.47l9.41-12.86a1.06,1.06,0,0,0-.45-1.61,10.18,10.18,0,0,1-6.38-9.72,10,10,0,0,1,3.42-7.83c2.26-2,5.36-3,9.24-3H74a1.07,1.07,0,0,1,1.07,1.07v34.64A1.07,1.07,0,0,1,74,125.18H68.58a1.07,1.07,0,0,1-1.07-1.07V111.38a1.07,1.07,0,0,0-1.07-1.07H61.65a1.06,1.06,0,0,0-.87.44l-10.18,14a1.08,1.08,0,0,1-.87.44H43.67A1.07,1.07,0,0,1,42.81,123.47Zm24.7-20.59V96.09A1.07,1.07,0,0,0,66.44,95h-8C55.06,95,53,96.7,53,99.49S55.06,104,58.47,104h8A1.07,1.07,0,0,0,67.51,102.88Z"/><path class="cls-3" d="M87.6,88.4h28.7a1.07,1.07,0,0,1,1.07,1.07v4.64a1.07,1.07,0,0,1-1.07,1.07h-9.52a1.07,1.07,0,0,0-1.07,1.07v27.86a1.07,1.07,0,0,1-1.08,1.07H99.21a1.07,1.07,0,0,1-1.07-1.07V96.25a1.07,1.07,0,0,0-1.07-1.07H87.6a1.07,1.07,0,0,1-1.07-1.07V89.47A1.07,1.07,0,0,1,87.6,88.4Z"/><path class="cls-3" d="M128.77,124.11V89.47a1.07,1.07,0,0,1,1.07-1.07h5.42a1.07,1.07,0,0,1,1.07,1.07v10a1.07,1.07,0,0,0,1.07,1.08h7q6.54,0,10.41,3.46a12.21,12.21,0,0,1,0,17.76c-2.58,2.26-6.05,3.42-10.41,3.42H129.84A1.07,1.07,0,0,1,128.77,124.11Zm7.56-6.68a1.07,1.07,0,0,0,1.07,1.08H144c4.42,0,7-2.11,7-5.73s-2.62-5.83-7-5.83h-6.6a1.07,1.07,0,0,0-1.07,1.07Z"/><path class="cls-3" d="M178.43,121.89v-4.83a1.07,1.07,0,0,1,1.6-.93,23.47,23.47,0,0,0,10.64,2.74c5.62,0,8.88-2,8.88-5.36,0-2.94-2.94-4.57-7.83-4.57h-3.55a1.07,1.07,0,0,1-1.07-1.07v-4.21a1.07,1.07,0,0,1,1.07-1.07h4.45c3.94,0,5.93-1.37,5.93-4,0-2.47-2.62-3.89-6.88-3.89a26,26,0,0,0-10.29,2,1.06,1.06,0,0,1-1.48-1V91.06a1.09,1.09,0,0,1,.59-1A25.72,25.72,0,0,1,192,87.66c4.25,0,7.62,1,10.14,2.89A9.06,9.06,0,0,1,206,98.12a7.78,7.78,0,0,1-3.3,6.4,1.06,1.06,0,0,0,.07,1.78,9,9,0,0,1,4.55,8,10.29,10.29,0,0,1-4.21,8.3c-2.78,2.21-6.62,3.31-11.4,3.31A24.47,24.47,0,0,1,179,122.82,1.08,1.08,0,0,1,178.43,121.89Z"/><path class="cls-3" d="M219.46,124.11V89.47a1.07,1.07,0,0,1,1.07-1.07h16.22c6.72,0,11.14,3.31,11.14,9.19a7.79,7.79,0,0,1-2.83,6.24,1.06,1.06,0,0,0,.27,1.77,10.07,10.07,0,0,1,3.19,2.55,9.75,9.75,0,0,1,2.2,6.57,9.44,9.44,0,0,1-3.46,7.57c-2.32,1.94-5.42,2.89-9.3,2.89H220.53A1.07,1.07,0,0,1,219.46,124.11ZM227,101.72a1.07,1.07,0,0,0,1.07,1.08h7.44c3.15,0,5-1.48,5-4s-1.89-4.1-5-4.1H228.1A1.07,1.07,0,0,0,227,95.78Zm0,15.87a1.07,1.07,0,0,0,1.07,1.07h8.44c3.73,0,6-1.68,6-4.78s-2.26-4.83-6-4.83H228.1a1.07,1.07,0,0,0-1.07,1.07Z"/><path class="cls-3" d="M262.86,124.11V89.47a1.07,1.07,0,0,1,1.07-1.07h24.86a1.07,1.07,0,0,1,1.07,1.07v4.64a1.07,1.07,0,0,1-1.07,1.07h-17.3a1.07,1.07,0,0,0-1.07,1.07v5a1.07,1.07,0,0,0,1.07,1.07H285a1.07,1.07,0,0,1,1.07,1.07v4.53a1.07,1.07,0,0,1-1.07,1.07H271.49a1.07,1.07,0,0,0-1.07,1.07v7.32a1.07,1.07,0,0,0,1.07,1.07h17.88a1.07,1.07,0,0,1,1.07,1.07v4.64a1.07,1.07,0,0,1-1.07,1.07H263.93A1.07,1.07,0,0,1,262.86,124.11Z"/><path class="cls-3" d="M300.89,121.89v-4.83a1.07,1.07,0,0,1,1.6-.93,23.5,23.5,0,0,0,10.64,2.74c5.63,0,8.88-2,8.88-5.36,0-2.94-2.94-4.57-7.83-4.57h-3.55a1.07,1.07,0,0,1-1.07-1.07v-4.21a1.07,1.07,0,0,1,1.07-1.07h4.45c3.94,0,5.93-1.37,5.93-4,0-2.47-2.62-3.89-6.88-3.89a26,26,0,0,0-10.29,2,1.06,1.06,0,0,1-1.48-1V91.06a1.09,1.09,0,0,1,.59-1,25.72,25.72,0,0,1,11.55-2.43c4.26,0,7.62,1,10.14,2.89a9,9,0,0,1,3.84,7.57,7.78,7.78,0,0,1-3.31,6.4,1.06,1.06,0,0,0,.07,1.78,9,9,0,0,1,4.55,8,10.31,10.31,0,0,1-4.2,8.3c-2.79,2.21-6.62,3.31-11.41,3.31a24.47,24.47,0,0,1-12.77-3.09A1.08,1.08,0,0,1,300.89,121.89Z"/><path class="cls-3" d="M338.82,131.62V119.47a1.07,1.07,0,0,1,1.07-1.07h2a1.1,1.1,0,0,0,.92-.5,28.5,28.5,0,0,0,3.36-9,75,75,0,0,0,1.15-14.71V89.47a1.07,1.07,0,0,1,1.07-1.07h23.71a1.07,1.07,0,0,1,1.07,1.07v27.86a1.07,1.07,0,0,0,1.07,1.07h2.9a1.07,1.07,0,0,1,1.08,1.07v12.15a1.07,1.07,0,0,1-1.08,1.07h-4.94a1.07,1.07,0,0,1-1.08-1.07v-5.37a1.07,1.07,0,0,0-1.07-1.07H347a1.07,1.07,0,0,0-1.07,1.07v5.37a1.07,1.07,0,0,1-1.08,1.07h-4.95A1.07,1.07,0,0,1,338.82,131.62Zm26.75-14.29V96.25a1.07,1.07,0,0,0-1.08-1.07h-8.63a1.08,1.08,0,0,0-1.07,1.07c-.05,8.2-.78,14.75-3.32,20.68a1.07,1.07,0,0,0,1,1.47h12A1.07,1.07,0,0,0,365.57,117.33Z"/><path class="cls-3" d="M94.8,63.21l4.42,4.48V63.21h1.57v4.48l4.43-4.48h2l-4.91,4.87,5.43,5.62h-2.06l-4.86-5.08V73.7H99.22V68.62L94.36,73.7h-2l5.43-5.62-4.93-4.87Z"/><path class="cls-3" d="M112.38,73.7V63.21H114V71.4l6.71-8.19h1.45V73.7h-1.56V65.54l-6.71,8.16Z"/><path class="cls-3" d="M126.58,72.27a2.49,2.49,0,0,0,.42,0c.93,0,1.54-.61,1.86-1.74a14.92,14.92,0,0,0,.52-4l.09-3.35h7.84V73.7h-1.56V64.58H131l-.07,2c0,.65,0,1.22-.08,1.69a11.53,11.53,0,0,1-.63,3.13,3.18,3.18,0,0,1-3.15,2.3,2.9,2.9,0,0,1-.46,0Z"/><path class="cls-3" d="M148.08,63a5.46,5.46,0,0,1,4.08,1.63,5.54,5.54,0,0,1,0,7.77,6,6,0,0,1-8.16,0,5.54,5.54,0,0,1,0-7.77A5.46,5.46,0,0,1,148.08,63ZM151,65.54a4.18,4.18,0,0,0-5.82,0,4.28,4.28,0,0,0,0,5.84,4.2,4.2,0,0,0,5.82,0,4.28,4.28,0,0,0,0-5.84Z"/><path class="cls-3" d="M158.83,73.7V63.21h1.56V71.4l6.71-8.19h1.45V73.7H167V65.54l-6.71,8.16Zm1.32-15.57h1.39a2,2,0,0,0,2.15,2,2,2,0,0,0,2.15-2h1.37a3.54,3.54,0,0,1-7.06,0Z"/><path class="cls-3" d="M183.88,63.21v4.32l5-4.32H191L185.47,68l6.32,5.75h-2.24l-5.67-5.17V73.7h-1.56V63.21Z"/><path class="cls-3" d="M200.43,63a5.46,5.46,0,0,1,4.08,1.63,5.54,5.54,0,0,1,0,7.77,6,6,0,0,1-8.16,0,5.54,5.54,0,0,1,0-7.77A5.46,5.46,0,0,1,200.43,63Zm2.91,2.59a4.18,4.18,0,0,0-5.82,0,4.28,4.28,0,0,0,0,5.84,4.2,4.2,0,0,0,5.82,0,4.28,4.28,0,0,0,0-5.84Z"/><path class="cls-3" d="M211.18,73.7V63.21h1.52l4.19,4.87,4.21-4.87h1.52V73.7H221.1V65.36l-3.91,4.54h-.61l-3.88-4.54V73.7Z"/><path class="cls-3" d="M228.48,73.7V63.21h9.43V73.7h-1.57V64.58h-6.29V73.7Z"/><path class="cls-3" d="M242.38,72.27a2.43,2.43,0,0,0,.41,0c.94,0,1.54-.61,1.87-1.74a14.92,14.92,0,0,0,.52-4l.09-3.35h7.84V73.7h-1.57V64.58h-4.77l-.07,2c0,.65,0,1.22-.09,1.69a11.16,11.16,0,0,1-.63,3.13,3.16,3.16,0,0,1-3.14,2.3,2.9,2.9,0,0,1-.46,0Z"/><path class="cls-3" d="M259.86,72.42a5.11,5.11,0,0,1-1.65-4,5.5,5.5,0,0,1,1.48-3.93A5,5,0,0,1,263.53,63c3.52,0,4.91,3.09,4.91,5.45v.44h-8.62c.17,2.26,1.95,3.71,4.47,3.71a6.16,6.16,0,0,0,3.36-1V73A5.81,5.81,0,0,1,264,74,5.9,5.9,0,0,1,259.86,72.42Zm7-4.86a3.59,3.59,0,0,0-.91-2.2,3,3,0,0,0-2.48-1,3.53,3.53,0,0,0-2.56,1,3.43,3.43,0,0,0-1.06,2.24Z"/><path class="cls-3" d="M275.1,63.21v4.32l5-4.32h2.12L276.69,68,283,73.7h-2.23l-5.67-5.17V73.7h-1.56V63.21Z"/><path class="cls-3" d="M287.56,72.4a5.36,5.36,0,0,1-1.58-4,5.23,5.23,0,0,1,1.61-3.91,5.4,5.4,0,0,1,4-1.59,6.38,6.38,0,0,1,3.17.76v1.46a5.88,5.88,0,0,0-2.95-.81,4.18,4.18,0,0,0-3,1.18,3.84,3.84,0,0,0-1.19,2.93,3.92,3.92,0,0,0,1.19,2.93,4.24,4.24,0,0,0,3,1.15,5.64,5.64,0,0,0,3.15-.91v1.43a6.45,6.45,0,0,1-3.39.89A5.52,5.52,0,0,1,287.56,72.4Z"/><circle class="cls-3" cx="269.77" cy="82.47" r="2.47"/><circle class="cls-3" cx="281.64" cy="82.47" r="2.47"/></g></g></svg>