<svg xmlns="http://www.w3.org/2000/svg" viewBox="0 0 633.78 300.29"><defs><style>.cls-1,.cls-2{fill:#36a9e1;}.cls-2{font-size:59.11px;font-family:PlumbCondensed-Regular, PlumbCondensed;letter-spacing:0.02em;}</style></defs><title>Ресурс 30</title><g id="Слой_2" data-name="Слой 2"><g id="Слой_1-2" data-name="Слой 1"><path class="cls-1" d="M327.59,34.51a45.4,45.4,0,0,0-2.23-13.33c-2.07-5.85-5.33-10-9.86-12.56a32.48,32.48,0,0,0-16.19-3.83H270.54v101.7h27a46.84,46.84,0,0,0,8.92-.87,28.45,28.45,0,0,0,7.95-2.88,21.19,21.19,0,0,0,6.49-5.33,25.8,25.8,0,0,0,4.61-8.48,48.85,48.85,0,0,0,2.27-15.1c.12-5.89.16-13,.16-21.25Q328,42.52,327.59,34.51Zm-15.2,37.95c0,5.85-1.07,10.36-3.3,13.63S302.89,91,297.16,91h-11.1V20.27H297c5.77,0,9.78,2,12,6s3.38,9.42,3.38,16.34Z"/><path class="cls-1" d="M396.65,24.15a29.36,29.36,0,0,0-5.25-10.07,26.87,26.87,0,0,0-21.84-10A28.48,28.48,0,0,0,356.11,7a27.84,27.84,0,0,0-8.91,7.44,29.92,29.92,0,0,0-5,10.11,40.4,40.4,0,0,0-1.55,11V73.92a49.4,49.4,0,0,0,1.63,12.78,30.84,30.84,0,0,0,5.09,10.67,24.53,24.53,0,0,0,8.95,7.31,30.61,30.61,0,0,0,13.25,2.67,29.84,29.84,0,0,0,11.61-2.2,25.45,25.45,0,0,0,9.11-6.32,28.6,28.6,0,0,0,6-10,38.77,38.77,0,0,0,2.11-13.16V35.5A40,40,0,0,0,396.65,24.15Zm-14,53c0,4.48-1.31,8-3.85,10.59a12.36,12.36,0,0,1-9.11,3.91c-5,0-8.48-1.68-10.55-5a22.84,22.84,0,0,1-3.1-12.3l-.16-38.94a20.85,20.85,0,0,1,.68-5,14.9,14.9,0,0,1,2.23-4.9,12.37,12.37,0,0,1,10.74-5.34,11.12,11.12,0,0,1,6.4,1.68,13.49,13.49,0,0,1,4,4.05,15.49,15.49,0,0,1,2.07,4.9,17.75,17.75,0,0,1,.63,4.43Z"/><polygon class="cls-1" points="472.35 4.79 459.38 37.95 450.35 62.65 449.79 62.65 440.61 38.13 427.36 4.79 412.64 4.79 412.64 106.48 428.03 106.48 428.03 47.03 428.59 46.86 435.35 65.27 444.54 88.2 455.48 88.2 464.39 66 471.27 47.03 471.83 47.03 471.83 106.48 487.23 106.48 487.23 4.79 472.35 4.79"/><path class="cls-1" d="M0,125.87V280.58H41V81.52C18.36,81.52,0,101.38,0,125.87ZM0,76.5c22.65,0,41-19.86,41-44.36V4.61H0ZM241.49,237.56l-11.87-12.83a111.13,111.13,0,0,0,3.5-27.19V86.68a108.6,108.6,0,0,0-4.67-31.23,81.2,81.2,0,0,0-14.53-27.83A75.5,75.5,0,0,0,189.13,7.68Q174.21,0,153.7,0q-22,0-37.08,8.07A74.46,74.46,0,0,0,92,28.64a81.92,81.92,0,0,0-13.8,27.79,112,112,0,0,0-4.28,30.25v106A136.08,136.08,0,0,0,78.4,228a85.12,85.12,0,0,0,14,29.43,67,67,0,0,0,24.79,20.14Q132.45,285,153.7,285A82.46,82.46,0,0,0,185.76,279a70.51,70.51,0,0,0,22-14.74l33.73,36.06C257.5,283,257.5,254.88,241.49,237.56Zm-51.63-55.42-7.24-7.83-29,31.36,24.16,26.13c-6.78,6.27-14.62,9.7-23.68,9.7q-20.52,0-29.09-13.74t-8.56-33.93l-.39-107.48a55,55,0,0,1,1.88-13.71,42.5,42.5,0,0,1,6.13-13.55,35.36,35.36,0,0,1,11.55-10.5q7.29-4.23,18.09-4.23c7.22,0,13.1,1.54,17.71,4.62a38.4,38.4,0,0,1,11,11.13,43.41,43.41,0,0,1,5.79,13.54A54,54,0,0,1,189.86,86Z"/><text class="cls-2" transform="translate(265.78 179.17)">КОМПЛЕКС<tspan x="0" y="70.94">УМНЫХ РЕШЕНИЙ</tspan></text></g></g></svg>