<svg xmlns="http://www.w3.org/2000/svg" viewBox="0 0 439.26 199.8"><defs><style>.cls-1{fill:#968374;}.cls-2{fill:#35363e;}</style></defs><title>Ресурс 10</title><g id="Слой_2" data-name="Слой 2"><g id="Слой_1-2" data-name="Слой 1"><polygon class="cls-1" points="184.37 0 172.59 0 172.59 11.79 184.37 11.79 184.37 23.57 196.16 23.57 196.16 11.79 207.95 11.79 207.95 0 196.16 0 184.37 0"/><polygon class="cls-1" points="243.31 0 231.52 0 219.74 0 219.74 11.79 231.52 11.79 231.52 23.57 243.31 23.57 243.31 11.79 255.1 11.79 255.1 0 243.31 0"/><polygon class="cls-2" points="243.31 70.72 243.31 58.94 243.31 47.15 243.31 35.36 231.52 35.36 219.74 35.36 207.95 35.36 196.16 35.36 184.37 35.36 184.37 47.15 184.37 58.94 184.37 70.72 172.59 70.72 172.59 82.51 184.37 82.51 196.16 82.51 207.95 82.51 207.95 70.72 196.16 70.72 196.16 58.94 196.16 47.15 207.95 47.15 219.74 47.15 231.52 47.15 231.52 58.94 231.52 70.72 219.74 70.72 219.74 82.51 231.52 82.51 243.31 82.51 255.1 82.51 255.1 70.72 243.31 70.72"/><polygon class="cls-2" points="28.97 132.89 9.19 132.89 9.19 116.14 0 116.14 0 121.47 3.86 121.47 3.86 148.96 0 148.96 0 154.29 9.19 154.29 9.19 137.57 28.97 137.57 28.97 154.29 38.16 154.29 38.16 148.96 34.3 148.96 34.3 121.47 38.16 121.47 38.16 116.14 28.97 116.14 28.97 132.89"/><polygon class="cls-2" points="366.24 145.83 366.24 116.14 357.09 116.14 357.09 121.47 360.91 121.47 360.91 154.29 366.24 154.29 366.24 154.27 366.34 154.27 386.38 124.62 386.38 154.29 391.71 154.29 391.71 116.17 386.38 116.17 366.24 145.83"/><rect class="cls-2" x="416.71" y="106.71" width="14.4" height="4.33"/><polygon class="cls-2" points="433.93 116.17 413.79 145.83 413.79 116.14 404.63 116.14 404.63 121.47 408.45 121.47 408.45 154.29 413.79 154.29 413.79 154.27 413.89 154.27 433.93 124.62 433.93 154.29 439.26 154.29 439.26 116.17 433.93 116.17"/><polygon class="cls-2" points="175.85 121.47 179.68 121.47 179.68 154.29 203.14 154.29 203.14 148.96 185.01 148.96 185.01 137.39 198.47 137.39 198.47 132.05 185.01 132.05 185.01 121.47 203.14 121.47 203.14 116.14 175.85 116.14 175.85 121.47"/><polygon class="cls-2" points="261.08 116.14 255.31 116.14 246.22 132.05 241.41 132.05 241.41 116.14 236.08 116.14 236.08 132.05 231.27 132.05 222.18 116.14 216.41 116.14 226.57 134.39 215.68 154.29 221.71 154.29 231.26 136.85 236.08 136.85 236.08 154.29 241.41 154.29 241.41 136.85 246.24 136.85 255.78 154.29 261.82 154.29 250.93 134.39 261.08 116.14"/><polygon class="cls-2" points="347.17 116.14 341.39 116.14 331.95 132.05 322.38 132.05 322.38 116.14 313.22 116.14 313.22 121.47 317.04 121.47 317.04 154.29 322.38 154.29 322.38 136.85 331.96 136.85 341.86 154.29 347.9 154.29 336.6 134.39 347.17 116.14"/><path class="cls-2" d="M66.08,115.5a19.74,19.74,0,1,0,19.54,19.73A19.63,19.63,0,0,0,66.08,115.5Zm0,34.6c-7.75,0-14-6.66-14-14.87s6.3-14.86,14-14.86,14,6.65,14,14.86S73.84,150.1,66.08,150.1Z"/><path class="cls-2" d="M112.62,116.14H93.82v5.33h3.82v32.82H103V140.2h9.65a12,12,0,1,0,0-24.06Zm0,18.73H103v-13.4h9.65a6.7,6.7,0,0,1,0,13.4Z"/><path class="cls-2" d="M160.45,133.87a10.5,10.5,0,0,0-7.62-17.73H135.07v5.33h3.81v32.82h15.31a10.94,10.94,0,0,0,10.93-10.92v-.55A10.92,10.92,0,0,0,160.45,133.87Zm-16.23-12.4h8.61a5.19,5.19,0,0,1,0,10.38h-8.61V121.47Zm15.57,21.9a5.6,5.6,0,0,1-5.6,5.6h-10V137.22h10a5.6,5.6,0,0,1,5.6,5.6Z"/><path class="cls-2" d="M288.63,150.1c-7.76,0-14.05-6.66-14.05-14.87s6.29-14.86,14.05-14.86a15.79,15.79,0,0,1,11,4.15l2.71-3.81a21.06,21.06,0,0,0-13.7-5.21,19.74,19.74,0,0,0,0,39.47,21.07,21.07,0,0,0,14.65-6.1l-2.81-3.81A15.61,15.61,0,0,1,288.63,150.1Z"/><path class="cls-1" d="M89.75,193.14h-3v6.43H84v-6.43h-3l-4.19,6.43H73.6l5.23-7.87L74,184.34h2.93L81,190.78h3v-6.44h2.76v6.44h3l4.11-6.44h3L92,191.73l5.23,7.84H94Z"/><path class="cls-1" d="M103.18,184.34h2.76v11.1l9.34-11.1h2.5v15.23H115V188.48l-9.31,11.09h-2.53Z"/><path class="cls-1" d="M139.08,184.34v15.23h-2.76V186.75h-6.55l-.17,3.4a36.45,36.45,0,0,1-.55,5.13,8.16,8.16,0,0,1-1.32,3.29,3,3,0,0,1-2.56,1.23,6.65,6.65,0,0,1-1.7-.25l.18-2.33a2.93,2.93,0,0,0,.69.08,1.86,1.86,0,0,0,1.72-1,6.52,6.52,0,0,0,.75-2.39c.11-.92.22-2.23.32-3.94l.25-5.63Z"/><path class="cls-1" d="M149.75,198.74a7.25,7.25,0,0,1-2.83-2.77,8.39,8.39,0,0,1,0-8,7.16,7.16,0,0,1,2.83-2.76,8.8,8.8,0,0,1,8.15,0,7.26,7.26,0,0,1,2.82,2.76,8.39,8.39,0,0,1,0,8,7.36,7.36,0,0,1-2.82,2.77,8.73,8.73,0,0,1-8.15,0Zm6.71-2.08a4.78,4.78,0,0,0,1.83-1.9,6.29,6.29,0,0,0,0-5.61,4.67,4.67,0,0,0-1.83-1.88,5.57,5.57,0,0,0-5.26,0,4.76,4.76,0,0,0-1.84,1.88,6.13,6.13,0,0,0,0,5.61,4.87,4.87,0,0,0,1.84,1.9,5.5,5.5,0,0,0,5.26,0Z"/><path class="cls-1" d="M168.61,184.34h2.76v11.1l9.34-11.1h2.5v15.23h-2.76V188.48l-9.31,11.09h-2.53Zm3.82-3a3.75,3.75,0,0,1-1.21-2.94h1.87a2.3,2.3,0,0,0,.73,1.71,2.69,2.69,0,0,0,1.89.65,2.73,2.73,0,0,0,1.89-.65,2.28,2.28,0,0,0,.75-1.71h1.93a3.7,3.7,0,0,1-1.24,2.94,4.91,4.91,0,0,1-3.31,1A4.83,4.83,0,0,1,172.43,181.33Z"/><path class="cls-1" d="M208,193.14H204.8v6.43H202V184.34h2.76v6.44H208l4.94-6.44h3l-5.78,7.33,6.18,7.9h-3.24Z"/><path class="cls-1" d="M224,198.74A7.25,7.25,0,0,1,221.2,196a8.39,8.39,0,0,1,0-8,7.16,7.16,0,0,1,2.83-2.76,8.8,8.8,0,0,1,8.15,0A7.26,7.26,0,0,1,235,188a8.39,8.39,0,0,1,0,8,7.36,7.36,0,0,1-2.82,2.77,8.73,8.73,0,0,1-8.15,0Zm6.71-2.08a4.78,4.78,0,0,0,1.83-1.9,6.29,6.29,0,0,0,0-5.61,4.67,4.67,0,0,0-1.83-1.88,5.57,5.57,0,0,0-5.26,0,4.76,4.76,0,0,0-1.84,1.88,6.21,6.21,0,0,0,0,5.61,4.87,4.87,0,0,0,1.84,1.9,5.5,5.5,0,0,0,5.26,0Z"/><path class="cls-1" d="M260.45,184.34v15.23H258V188.45l-5.69,9.4h-1.21l-5.63-9.43v11.15h-2.53V184.34h2.84l6,10.29,6.15-10.29Z"/><path class="cls-1" d="M282.81,184.34v15.23h-2.75V186.75h-8.6v12.82H268.7V184.34Z"/><path class="cls-1" d="M304.12,184.34v15.23h-2.76V186.75H294.8l-.17,3.4a36.45,36.45,0,0,1-.55,5.13,8.16,8.16,0,0,1-1.32,3.29,3,3,0,0,1-2.56,1.23,6.52,6.52,0,0,1-1.69-.25l.17-2.33a2.93,2.93,0,0,0,.69.08,1.85,1.85,0,0,0,1.72-1,6.17,6.17,0,0,0,.75-2.39c.12-.92.22-2.23.32-3.94l.26-5.63Z"/><path class="cls-1" d="M326.05,192.88H313.69a4.75,4.75,0,0,0,1.77,3.23,6.27,6.27,0,0,0,8.15-.62l1.52,1.79a6.72,6.72,0,0,1-2.57,1.83,8.82,8.82,0,0,1-3.44.64,9,9,0,0,1-4.28-1A7.11,7.11,0,0,1,312,196a8,8,0,0,1-1-4,8.1,8.1,0,0,1,1-4,7.06,7.06,0,0,1,2.73-2.77,7.8,7.8,0,0,1,3.92-1,7.65,7.65,0,0,1,3.9,1,6.92,6.92,0,0,1,2.67,2.77,8.37,8.37,0,0,1,1,4.08A7.78,7.78,0,0,1,326.05,192.88Zm-10.8-5.15a4.86,4.86,0,0,0-1.56,3.16h9.77a4.83,4.83,0,0,0-1.57-3.14,4.7,4.7,0,0,0-3.32-1.23A4.81,4.81,0,0,0,315.25,187.73Z"/><path class="cls-1" d="M339.19,193.14H336v6.43h-2.75V184.34H336v6.44h3.22l4.95-6.44h3l-5.78,7.33,6.18,7.9H344.3Z"/><path class="cls-1" d="M355.3,198.74a7.33,7.33,0,0,1-2.86-2.77,8.25,8.25,0,0,1,0-8,7.23,7.23,0,0,1,2.86-2.76,8.58,8.58,0,0,1,4.15-1,8,8,0,0,1,3.7.84,5.9,5.9,0,0,1,2.51,2.41l-2.1,1.35a4.69,4.69,0,0,0-1.78-1.63,5,5,0,0,0-2.36-.55,5.43,5.43,0,0,0-2.68.66,4.7,4.7,0,0,0-1.87,1.88,6.19,6.19,0,0,0,0,5.64,4.7,4.7,0,0,0,1.87,1.88,5.43,5.43,0,0,0,2.68.66,5.12,5.12,0,0,0,2.36-.54,4.72,4.72,0,0,0,1.78-1.64l2.1,1.32a6.06,6.06,0,0,1-2.51,2.43,8,8,0,0,1-3.7.85A8.47,8.47,0,0,1,355.3,198.74Z"/></g></g></svg>