<svg xmlns="http://www.w3.org/2000/svg" viewBox="0 0 20 20.71"><defs><style>.cls-1,.cls-2{fill:#ef3125;}.cls-1{fill-rule:evenodd;}</style></defs><title>Ресурс 3</title><g id="Слой_2" data-name="Слой 2"><g id="Слой_1-2" data-name="Слой 1"><path class="cls-1" d="M6.83,18.71a3,3,0,1,1,0-2H15.5a2.5,2.5,0,0,0,0-5H4.5a4.5,4.5,0,0,1,0-9H7.59l-1.3-1.3L7.71,0l3.7,3.71-3.7,3.7L6.29,6l1.3-1.29H4.5a2.5,2.5,0,0,0,0,5h11a4.5,4.5,0,0,1,0,9ZM4,16.71a1,1,0,1,0,1,1A1,1,0,0,0,4,16.71Z"/><path class="cls-2" d="M12.85.91h2l.71,2.91L16.3.91h2L19,6H17.17L17,3.36,16.27,6H14.89L14.2,3.36,14,6H12.21Z"/></g></g></svg>