<svg xmlns="http://www.w3.org/2000/svg" viewBox="0 0 18 18"><defs><style>.cls-1{fill:#ef3125;fill-rule:evenodd;}</style></defs><title>Ресурс 50</title><g id="Слой_2" data-name="Слой 2"><g id="Слой_1-2" data-name="Слой 1"><polygon class="cls-1" points="2 3.41 2 2 3.41 2 6.73 2 7 2 7 0 0 0 0 7 2 7 2 3.41"/><polygon class="cls-1" points="11 0 11 2 14.59 2 2 14.59 2 11 0 11 0 18 7 18 7 16 3.41 16 16 3.41 16 7 18 7 18 0 11 0"/><polygon class="cls-1" points="16 14.59 16 16 14.59 16 11 16 11 18 18 18 18 11 16 11 16 14.59"/></g></g></svg>