<svg xmlns="http://www.w3.org/2000/svg" viewBox="0 0 18.79 20.35"><defs><style>.cls-1{fill:none;stroke:#e83c33;stroke-miterlimit:10;stroke-width:2px;}</style></defs><title>Ресурс 40</title><g id="Слой_2" data-name="Слой 2"><g id="Слой_1-2" data-name="Слой 1"><rect class="cls-1" x="3.48" y="7.26" width="12.09" height="12.09" rx="6.05"/><path class="cls-1" d="M4.3,5.76A9.11,9.11,0,0,1,9.52,4.13h0A9.15,9.15,0,0,1,14.66,5.7"/><path class="cls-1" d="M2.6,3.13A12.29,12.29,0,0,1,9.52,1h0a12.23,12.23,0,0,1,6.94,2.14"/><line class="cls-1" y1="10.6" x2="4.3" y2="10.6"/><line class="cls-1" x1="4.3" y1="16.55" y2="16.55"/><line class="cls-1" x1="18.79" y1="16.55" x2="15.09" y2="16.55"/><line class="cls-1" x1="15.09" y1="10.6" x2="18.79" y2="10.6"/><line class="cls-1" x1="5.39" y1="13.31" x2="6.68" y2="13.31"/><line class="cls-1" x1="7.14" y1="13.31" x2="8.43" y2="13.31"/><line class="cls-1" x1="8.88" y1="13.31" x2="10.17" y2="13.31"/><line class="cls-1" x1="10.63" y1="13.31" x2="11.92" y2="13.31"/><line class="cls-1" x1="12.37" y1="13.31" x2="13.67" y2="13.31"/></g></g></svg>