<?xml version="1.0" encoding="utf-8"?>
<!-- Generator: Adobe Illustrator 23.0.2, SVG Export Plug-In . SVG Version: 6.00 Build 0)  -->
<svg version="1.1" id="Слой_1" xmlns="http://www.w3.org/2000/svg" xmlns:xlink="http://www.w3.org/1999/xlink" x="0px" y="0px"
	 viewBox="0 0 854.7 272.7" style="enable-background:new 0 0 854.7 272.7;" xml:space="preserve">
<style type="text/css">
	.st0{enable-background:new    ;}
	.st1{fill:#2B7ABF;}
	.st2{fill:url(#SVGID_1_);}
</style>
<title>Ресурс 10</title>
<g>
	<g id="Слой_1-2">
		<g class="st0">
			<path class="st1" d="M159.9,251.7v14.4h-5.6V257h-34.6l-0.1,9.2h-5.6l0.1-14.4h2c2.6-0.2,4.5-2.2,5.6-6.3c1.1-4,1.7-9.7,2-17
				l0.4-13.5h29.5v36.8H159.9z M127.6,243.7c-0.7,3.9-1.9,6.6-3.6,8h23.7v-31.6h-18.4L129,229C128.8,234.9,128.3,239.8,127.6,243.7z
				"/>
			<path class="st1" d="M181.5,254.7c-3.4-1.9-6.1-4.4-8-7.7c-1.9-3.3-2.9-6.9-2.9-11c0-4,1-7.7,2.9-11c1.9-3.3,4.6-5.8,8-7.7
				c3.4-1.9,7.2-2.8,11.5-2.8c4.2,0,8,0.9,11.4,2.8c3.4,1.9,6.1,4.4,8,7.7c1.9,3.3,2.9,6.9,2.9,11s-1,7.8-2.9,11
				c-1.9,3.3-4.6,5.8-8,7.7c-3.4,1.9-7.2,2.8-11.4,2.8C188.7,257.4,184.9,256.5,181.5,254.7z M201.3,250c2.5-1.4,4.4-3.3,5.8-5.8
				c1.4-2.5,2.1-5.2,2.1-8.2c0-3-0.7-5.8-2.1-8.2c-1.4-2.5-3.4-4.4-5.8-5.8c-2.5-1.4-5.2-2.1-8.3-2.1c-3.1,0-5.9,0.7-8.4,2.1
				c-2.5,1.4-4.5,3.3-5.9,5.8c-1.4,2.5-2.1,5.2-2.1,8.2c0,3,0.7,5.8,2.1,8.2c1.4,2.5,3.4,4.4,5.9,5.8c2.5,1.4,5.3,2.1,8.4,2.1
				C196.1,252.1,198.8,251.4,201.3,250z"/>
		</g>
		<g class="st0">
			<path class="st1" d="M269.9,257l-0.1-30.6l-15.2,25.5h-2.8l-15.2-25.3V257H231v-42h4.9l17.5,29.5l17.3-29.5h4.9l0.1,42H269.9z"/>
			<path class="st1" d="M291.7,238.5h30v4h-30V238.5z"/>
		</g>
		<g class="st0">
			<path class="st1" d="M345.4,254.7c-3.4-1.9-6-4.4-8-7.7c-1.9-3.3-2.9-6.9-2.9-11s1-7.7,2.9-11c1.9-3.3,4.6-5.8,8-7.7
				c3.4-1.9,7.2-2.8,11.4-2.8c3.3,0,6.3,0.6,9,1.7c2.7,1.1,5,2.7,7,4.9l-3.9,3.8c-3.2-3.3-7.1-5-11.8-5c-3.1,0-5.9,0.7-8.5,2.1
				c-2.5,1.4-4.5,3.3-5.9,5.8c-1.4,2.5-2.1,5.2-2.1,8.2c0,3,0.7,5.8,2.1,8.2c1.4,2.5,3.4,4.4,5.9,5.8c2.5,1.4,5.3,2.1,8.5,2.1
				c4.7,0,8.6-1.7,11.8-5l3.9,3.8c-1.9,2.2-4.3,3.8-7,4.9c-2.7,1.1-5.8,1.7-9,1.7C352.5,257.4,348.7,256.5,345.4,254.7z"/>
			<path class="st1" d="M417.5,251.7v5.2H387v-42h29.6v5.2H393v12.9h21.1v5.1H393v13.6H417.5z"/>
			<path class="st1" d="M469,215v42h-6v-18.7h-24.1V257h-6v-42h6V233H463V215H469z"/>
		</g>
		<g class="st0">
			<path class="st1" d="M495.5,254.7c-3.4-1.9-6-4.4-8-7.7c-1.9-3.3-2.9-6.9-2.9-11s1-7.7,2.9-11c1.9-3.3,4.6-5.8,8-7.7
				c3.4-1.9,7.2-2.8,11.4-2.8c3.3,0,6.3,0.6,9,1.7c2.7,1.1,5,2.7,7,4.9l-3.9,3.8c-3.2-3.3-7.1-5-11.8-5c-3.1,0-5.9,0.7-8.5,2.1
				c-2.5,1.4-4.5,3.3-5.9,5.8c-1.4,2.5-2.1,5.2-2.1,8.2c0,3,0.7,5.8,2.1,8.2c1.4,2.5,3.4,4.4,5.9,5.8c2.5,1.4,5.3,2.1,8.5,2.1
				c4.7,0,8.6-1.7,11.8-5l3.9,3.8c-1.9,2.2-4.3,3.8-7,4.9c-2.7,1.1-5.8,1.7-9,1.7C502.7,257.4,498.9,256.5,495.5,254.7z"/>
		</g>
		<g class="st0">
			<path class="st1" d="M563.5,246.5h-22.3l-4.6,10.5h-6.2l19-42h5.9l19.1,42h-6.3L563.5,246.5z M561.4,241.7l-9.1-20.6l-9.1,20.6
				H561.4z"/>
			<path class="st1" d="M629.4,251.7v14.8h-5.6V257h-36.2v-42h5.9v36.8H617V215h5.9v36.8H629.4z"/>
			<path class="st1" d="M643.4,215h5.9v32.4l24.8-32.4h5.5v42h-5.9v-32.3L648.9,257h-5.5V215z"/>
			<path class="st1" d="M729.6,215v42h-5.9v-12.2h-11.6c-0.7,0-1.3,0-1.6-0.1l-8.4,12.3h-6.4l9.3-13.3c-3-1-5.3-2.7-6.9-5
				c-1.6-2.3-2.4-5.2-2.4-8.5c0-4.8,1.5-8.5,4.6-11.1c3.1-2.7,7.2-4,12.4-4H729.6z M704.5,237.2c1.8,1.7,4.5,2.5,8.1,2.5h11.1v-19.5
				h-10.7c-3.6,0-6.4,0.8-8.3,2.5c-1.9,1.7-2.9,4.1-2.9,7.3C701.8,233.1,702.7,235.5,704.5,237.2z"/>
		</g>
		
			<linearGradient id="SVGID_1_" gradientUnits="userSpaceOnUse" x1="195.9175" y1="-52.5977" x2="685.7575" y2="437.2423" gradientTransform="matrix(1 0 0 -1 0 271.8898)">
			<stop  offset="0" style="stop-color:#008DD1"/>
			<stop  offset="0.17" style="stop-color:#4662AD"/>
			<stop  offset="0.3" style="stop-color:#3471B8"/>
			<stop  offset="0.48" style="stop-color:#237FC3"/>
			<stop  offset="0.61" style="stop-color:#1D84C7"/>
			<stop  offset="0.61" style="stop-color:#1E85C7"/>
			<stop  offset="0.68" style="stop-color:#409DBF"/>
			<stop  offset="0.76" style="stop-color:#5BAFB9"/>
			<stop  offset="0.84" style="stop-color:#6EBCB4"/>
			<stop  offset="0.91" style="stop-color:#79C4B2"/>
			<stop  offset="1" style="stop-color:#7DC7B1"/>
		</linearGradient>
		<path class="st2" d="M721.3,2.5v148h-20L619.3,41.8v108.8H596V2.5h22.3l79.8,105.8V2.5H721.3z M332.5,62L297.1,2.5h-66.6l-51,60.1
			V2.5h-41v148h41v-38.2l15-16.7l37.2,55H281l-57.9-84.4l44.4-50.4L316,92.2v58.4h32.6v-59l56.9-89h-37L332.5,62z M129.2,104.9
			c0,30.2-23.9,48.2-59.8,48.2c-26.2,0-51.2-8.2-69.4-24.5l22.8-27.3c14.6,11.6,30.9,17.8,48,17.8c11,0,16.9-3.8,16.9-10.6
			c0-6.1-4.9-9.5-25-14.2C31.3,87.1,7,78.2,7,47.4C7,19.9,28.8,0,64.3,0c25.2,0,44.8,6.8,60.9,19.7l-20.5,29
			C91.1,39.1,76.3,34,63.2,34c-9.9,0-14.8,4.2-14.8,9.9c0,6.8,5.1,9.7,25.6,14.4C108.1,65.8,129.2,76.8,129.2,104.9z M447.7,121
			h68.1v29.6H415.1V2.5h32.6L447.7,121z M854.7,140.5v10.1H754V2.5h99.7v10.1H765v58.1h79.1V81H765v59.4L854.7,140.5z M541,2.5h26
			v148h-26V2.5z"/>
	</g>
</g>
</svg>
