<svg xmlns="http://www.w3.org/2000/svg" viewBox="0 0 22.22 19.5"><defs><style>.cls-1{fill:#ef3125;fill-rule:evenodd;}</style></defs><title>Ресурс 110</title><g id="Слой_2" data-name="Слой 2"><g id="Слой_1-2" data-name="Слой 1"><path class="cls-1" d="M19.17,13.81a3,3,0,0,1,3,2.84,3.06,3.06,0,0,1-6.1,0A3,3,0,0,1,19.17,13.81ZM13,19.49H11V16.18a7,7,0,0,1-2.28-.75A5.26,5.26,0,0,1,6,16.7v2.79H4V16.7c-2.28-.37-4-2-4-4,0-1.05,0-.83,4.23-9A.84.84,0,0,1,5,3.25a.84.84,0,0,1,.77.41L7.61,7.23C8.37,5.76,9.47,3.65,11.08.5A1,1,0,0,1,12,0a1,1,0,0,1,.93.5C17.58,9.57,18,9.88,18,11.37c0,2.41-2.16,4.42-5,4.81Zm6.17-4.26a1.42,1.42,0,1,1-1.52,1.42A1.48,1.48,0,0,1,19.17,15.23ZM5,15.21c-.57,0-3-.34-3-2.49,0-.5,0-.52,2-4.45L5,6.38,6.23,8.73l.32.62a3.75,3.75,0,0,0-.55,2,4.28,4.28,0,0,0,1.29,3A3.77,3.77,0,0,1,5,15.21Zm7.67-.64a3.76,3.76,0,0,1-1.34,0A3.51,3.51,0,0,1,8,11.37c0-.68,0-.69,2.46-5.46.44-.85.95-1.83,1.54-3l1.84,3.53C15.9,10.39,16,10.62,16,11.37A3.51,3.51,0,0,1,12.67,14.57Z"/></g></g></svg>